PathFileType	4	(x/y/z)	Passive_Pref0006.trc
DataRate	CameraRate	NumFrames	NumMarkers	Units	OrigDataRate	OrigDataStartFrame	OrigNumFrames
240	240	4	50	mm	240	188	300
Frame#	Time	R_AC			L_AC			HEAD			STERN			C7			L_IC			R_IC			L_ASIS			R_ASIS			L_GT			R_GT			R_PSIS			L_PSIS			SACRAL			L_LAT_KNEE			L_MED_KNEE			R_LAT_KNEE			R_MED_KNEE			L_LAT_ANK			L_MED_ANK			R_LAT_ANK			R_MED_ANK			L_THIGH_PROX_POST			L_THIGH_PROX_ANT			L_THIGH_DIST_ANT			L_THIGH_DIST_POST			R_THIGH_PROX_POST			R_THIGH_PROX_ANT			R_THIGH_DIST_ANT			R_THIGH_DIST_POST			L_SHANK_PROX_POST			L_SHANK_PROX_ANT			L_SHANK_DIST_ANT			L_SHANK_DIST_POST			R_SHANK_PROX_POST			R_SHANK_PROX_ANT			R_SHANK_DIST_ANT			R_SHANK_DIST_POST			L_HEEL_LAT			L_HEEL_SUP			L_HEEL_MED			R_HEEL_LAT			R_HEEL_SUP			R_HEEL_MED			L_1ST_MET			L_5TH_MET			L_TOE			R_1ST_MET			R_5TH_MET			R_TOE			
		X1	Y1	Z1	X2	Y2	Z2	X3	Y3	Z3	X4	Y4	Z4	X5	Y5	Z5	X6	Y6	Z6	X7	Y7	Z7	X8	Y8	Z8	X9	Y9	Z9	X10	Y10	Z10	X11	Y11	Z11	X12	Y12	Z12	X13	Y13	Z13	X14	Y14	Z14	X15	Y15	Z15	X16	Y16	Z16	X17	Y17	Z17	X18	Y18	Z18	X19	Y19	Z19	X20	Y20	Z20	X21	Y21	Z21	X22	Y22	Z22	X23	Y23	Z23	X24	Y24	Z24	X25	Y25	Z25	X26	Y26	Z26	X27	Y27	Z27	X28	Y28	Z28	X29	Y29	Z29	X30	Y30	Z30	X31	Y31	Z31	X32	Y32	Z32	X33	Y33	Z33	X34	Y34	Z34	X35	Y35	Z35	X36	Y36	Z36	X37	Y37	Z37	X38	Y38	Z38	X39	Y39	Z39	X40	Y40	Z40	X41	Y41	Z41	X42	Y42	Z42	X43	Y43	Z43	X44	Y44	Z44	X45	Y45	Z45	X46	Y46	Z46	X47	Y47	Z47	X48	Y48	Z48	X49	Y49	Z49	X50	Y50	Z50	

188	0.78177	257.71	1492.7	513.31	229.95	1527.2	111.57	299.59	1823.7	330.7	327.51	1457.7	313.29	176.28	1551.1	323.05	190.22	1076.8	139.27	237.45	1100.8	478.9	263.15	996.87	160.87	309.13	1024.6	426.73	146.91	919.53	129.36	228.86	937.31	491.09	81.939	1005.6	373.24	66.946	1010.6	288.9	63.708	974.84	329.55	106.28	517.19	156.32	144.44	507.14	289.15	376.87	542.02	433.34	361.85	548.35	299.6	-244.39	245.45	211.61	-248.28	252.67	294.53	345.14	87.732	372.02	375.72	111.66	270.48	164.15	753.71	136.87	228.75	742.66	157.36	215.75	671.06	166.37	158.68	677.43	145.35	239.44	778.48	469.09	296.86	800.02	487.22	314.42	728.23	473.03	264.65	710.74	454.6	69.785	477.43	172.25	127.26	457.16	179.25	81.198	410.44	197.1	28.012	431.59	179.77	335.54	376.26	434.86	392.63	379.33	423.91	391.18	304.79	409.18	336	299.62	417.66	-334.37	241.68	216.16	-325.01	271.82	248.25	-343.45	249.72	285.76	272.51	41.43	330.26	275.17	69.149	294.43	302.2	42.997	270.61	-198.98	88.614	322.17	-204.08	90.462	205.02	-138.56	62.825	284.04	516.21	50.262	289.51	471.17	41.572	401.68	561.93	65.824	349.25
189	0.78595	262.79	1493.6	513.28	234.66	1527.7	111.52	304.93	1824.4	330.99	332.39	1458.5	313.26	181.2	1551.8	323.07	195.53	1077.2	139.78	242.94	1101.5	479.34	268.87	997.75	161.4	314.63	1025.1	427.32	153.18	919.8	129.76	234.26	937.71	491.47	87.428	1006	373.66	72.461	1010.5	289.25	69.313	974.97	330.04	116.13	517.47	155.14	154.64	506.83	287.85	380.37	541.8	433.39	365.51	548.32	299.6	-236.7	248.54	210.94	-240.14	255.62	293.95	345.37	87.864	371.87	376.08	111.54	270.29	172.08	754.03	136.63	236.84	743.55	156.98	224.59	671.71	165.61	167.41	677.65	144.77	244.2	778.92	469.34	301.71	800.2	487.45	318.97	728.33	473.21	269.23	711.03	454.8	79.346	477.98	171.11	136.65	457.19	177.9	90.288	410.81	195.78	37.2	432.47	178.65	337.81	376.37	434.75	394.94	379.05	423.88	392.98	304.51	409.12	337.75	299.74	417.5	-326.69	245.52	215.77	-316.97	275.53	247.9	-335.44	253.53	285.44	272.63	41.666	330.26	275.35	69.35	294.38	302.34	43.11	270.59	-192.23	91.1	321	-197.69	93.193	203.87	-132.14	64.828	282.61	516.36	49.62	289.3	471.41	41.46	401.63	562.09	65.114	348.96
190	0.79013	267.85	1494.6	513.24	239.28	1528.2	111.46	310.25	1825.1	331.24	337.24	1459.4	313.2	186.11	1552.6	323.08	200.82	1077.7	140.28	248.43	1102.2	479.78	274.58	998.68	161.9	320.11	1025.7	427.88	159.43	920.11	130.15	239.65	938.15	491.85	92.881	1006.5	374.08	77.95	1010.5	289.61	74.874	975.14	330.53	126.03	517.83	153.94	164.87	506.64	286.53	383.74	541.58	433.48	369.07	548.27	299.64	-228.78	251.51	210.22	-231.8	258.46	293.3	345.57	87.991	371.75	376.43	111.43	270.12	180	754.42	136.37	244.91	744.5	156.54	233.44	672.46	164.8	176.12	677.96	144.15	248.89	779.38	469.6	306.48	800.39	487.69	323.43	728.45	473.42	273.71	711.34	455.03	88.98	478.6	169.93	146.12	457.33	176.53	99.488	411.26	194.44	46.492	433.39	177.51	339.97	376.48	434.68	397.13	378.76	423.9	394.69	304.25	409.1	339.43	299.85	417.39	-318.77	249.18	215.32	-308.73	279.05	247.47	-327.21	257.16	285.04	272.75	41.899	330.27	275.52	69.557	294.34	302.47	43.232	270.58	-185.16	93.528	319.82	-190.97	95.852	202.7	-125.4	66.818	281.18	516.51	49.045	289.13	471.62	41.348	401.6	562.25	64.449	348.73
191	0.79431	272.88	1495.6	513.2	243.83	1528.7	111.39	315.55	1825.9	331.45	342.07	1460.3	313.13	191	1553.3	323.09	206.1	1078.3	140.77	253.92	1102.9	480.2	280.26	999.65	162.38	325.57	1026.3	428.43	165.64	920.47	130.53	245.02	938.61	492.23	98.297	1006.9	374.5	83.414	1010.5	289.95	80.392	975.34	331.02	135.97	518.27	152.71	175.11	506.56	285.19	386.97	541.37	433.61	372.51	548.22	299.72	-220.63	254.36	209.44	-223.26	261.18	292.58	345.75	88.112	371.66	376.75	111.35	269.98	187.89	754.88	136.07	252.94	745.51	156.04	242.29	673.29	163.94	184.81	678.34	143.5	253.48	779.88	469.87	311.17	800.61	487.93	327.8	728.59	473.65	278.07	711.68	455.28	98.683	479.27	168.74	155.68	457.57	175.14	108.79	411.78	193.09	55.882	434.34	176.34	342.02	376.58	434.65	399.21	378.49	423.96	396.32	304	409.14	341.01	299.96	417.31	-310.62	252.65	214.79	-300.28	282.39	246.97	-318.75	260.6	284.58	272.86	42.128	330.28	275.68	69.77	294.31	302.6	43.364	270.57	-177.79	95.882	318.62	-183.91	98.421	201.51	-118.32	68.779	279.75	516.66	48.537	289	471.82	41.235	401.6	562.41	63.823	348.56
